HIERARCHY
ROOT joint_Root
{
	OFFSET 0.0 0.0 0.0
	CHANNELS 6 Xposition Yposition Zposition Zrotation Xrotation Yrotation 
	JOINT Hips
	{
		OFFSET -17.1583 93.1646 452.98
		CHANNELS 6 Xposition Yposition Zposition Zrotation Xrotation Yrotation 
		JOINT Spine
		{
			OFFSET 15.7357 0.0 0.0
			CHANNELS 6 Xposition Yposition Zposition Zrotation Xrotation Yrotation 
			JOINT Chest
			{
				OFFSET 8.98455 -0.406207 0.0
				CHANNELS 6 Xposition Yposition Zposition Zrotation Xrotation Yrotation 
				JOINT Neck
				{
					OFFSET 16.3773 0.0 0.0
					CHANNELS 6 Xposition Yposition Zposition Zrotation Xrotation Yrotation 
					JOINT Head
					{
						OFFSET 6.45672 0.0 0.0
						CHANNELS 6 Xposition Yposition Zposition Zrotation Xrotation Yrotation 
						End Site
						{
							OFFSET 0.0 0.0 0.0
						}
					}
				}
				JOINT Shoulder_L
				{
					OFFSET 12.9942 -0.242716 4.98039
					CHANNELS 6 Xposition Yposition Zposition Zrotation Xrotation Yrotation 
					JOINT UpperArm_L
					{
						OFFSET 5.34809 0.0 0.0
						CHANNELS 6 Xposition Yposition Zposition Zrotation Xrotation Yrotation 
						JOINT LowerArm_L
						{
							OFFSET 24.3286 1.87007e-05 0.0
							CHANNELS 6 Xposition Yposition Zposition Zrotation Xrotation Yrotation 
							JOINT Hand_L
							{
								OFFSET 22.2916 0.0 0.0
								CHANNELS 6 Xposition Yposition Zposition Zrotation Xrotation Yrotation 
								End Site
								{
									OFFSET 0.0 0.0 0.0
								}
							}
						}
					}
				}
				JOINT Shoulder_R
				{
					OFFSET 12.9945 -0.242716 -4.98039
					CHANNELS 6 Xposition Yposition Zposition Zrotation Xrotation Yrotation 
					JOINT UpperArm_R
					{
						OFFSET -5.34813 0.0 0.0
						CHANNELS 6 Xposition Yposition Zposition Zrotation Xrotation Yrotation 
						JOINT LowerArm_R
						{
							OFFSET -24.3289 0.000322201 0.0
							CHANNELS 6 Xposition Yposition Zposition Zrotation Xrotation Yrotation 
							JOINT Hand_R
							{
								OFFSET -22.2915 -0.000108084 0.0
								CHANNELS 6 Xposition Yposition Zposition Zrotation Xrotation Yrotation 
								End Site
								{
									OFFSET 0.0 0.0 0.0
								}
							}
						}
					}
				}
			}
		}
		JOINT UpperLeg_L
		{
			OFFSET -2.19248 -6.46944 0.0
			CHANNELS 6 Xposition Yposition Zposition Zrotation Xrotation Yrotation 
			JOINT LowerLeg_L
			{
				OFFSET 39.0811 0.0 -1.23785e-05
				CHANNELS 6 Xposition Yposition Zposition Zrotation Xrotation Yrotation 
				JOINT Foot_L
				{
					OFFSET 40.9854 0.0 -1.26872e-05
					CHANNELS 6 Xposition Yposition Zposition Zrotation Xrotation Yrotation 
					JOINT Toes_L
					{
						OFFSET 11.7543 0.0 0.0
						CHANNELS 6 Xposition Yposition Zposition Zrotation Xrotation Yrotation 
						End Site
						{
							OFFSET 0.0 0.0 0.0
						}
					}
				}
			}
		}
		JOINT UpperLeg_R
		{
			OFFSET -2.19251 6.46944 0.0
			CHANNELS 6 Xposition Yposition Zposition Zrotation Xrotation Yrotation 
			JOINT LowerLeg_R
			{
				OFFSET -39.0811 -0.00228153 -0.0401928
				CHANNELS 6 Xposition Yposition Zposition Zrotation Xrotation Yrotation 
				JOINT Foot_R
				{
					OFFSET -40.9854 0.0 0.0
					CHANNELS 6 Xposition Yposition Zposition Zrotation Xrotation Yrotation 
					JOINT Toes_R
					{
						OFFSET -11.7543 0.0 0.0
						CHANNELS 6 Xposition Yposition Zposition Zrotation Xrotation Yrotation 
						End Site
						{
							OFFSET 0.0 0.0 0.0
						}
					}
				}
			}
		}
	}
}
MOTION
Frames:	6
Frame Time:	0.0333333
0.000000 0.000000 0.000000 0.000000 0.000000 -0.000000 0.220333 91.186800 -22.377300 85.723500 -3.269720 -14.726200 15.735700 0.000005 -0.000001 30.133300 83.665600 -27.281500 8.984550 -0.406207 -0.000000 -1.122500 -11.175600 5.605870 16.377300 -0.000001 -0.000001 -9.660960 5.946530 -1.158310 6.456720 -0.000001 -0.000000 2.990750 14.090400 2.549630 12.994200 -0.242716 4.980390 -91.190400 5.607340 -77.994300 5.348090 -0.000007 -0.000001 -69.570900 -1.574840 3.759560 24.328600 0.000019 0.000005 48.219100 -2.198970 -91.967400 22.291600 -0.000001 0.000005 54.986100 4.977020 7.801870 12.994500 -0.242716 -4.980390 90.104100 -0.342665 -73.095300 -5.348130 -0.000001 -0.000004 -51.300400 -15.327900 18.080100 -24.328900 0.000322 -0.000009 -0.001169 17.007000 0.000075 -22.291500 -0.000108 -0.000004 22.550000 4.420330 17.894700 -2.192480 -6.469440 -0.000000 -177.304000 -6.248460 8.447560 39.081100 -0.000007 -0.000012 0.086144 -0.100728 40.536800 40.985400 -0.000006 -0.000013 -11.384900 10.070300 -33.028800 11.754300 -0.000000 0.000003 0.002171 0.053895 -14.390700 -2.192510 6.469440 -0.000001 -176.316000 -8.888520 132.759000 -39.081100 -0.002282 -0.040193 -0.068400 0.111521 32.736700 -40.985400 0.000008 0.000006 -11.887500 -2.157070 -78.149000 -11.754300 -0.000006 -0.000006 -0.000082 0.169044 -9.716900
0.000000 0.000000 0.000000 0.000000 0.000000 -0.000000 0.373560 89.067100 -10.739000 85.809100 -4.268010 -12.096900 15.735700 0.000005 -0.000001 42.790800 83.676700 -39.982000 8.984550 -0.406207 -0.000000 1.081880 -9.440790 5.712330 16.377300 -0.000001 -0.000001 -10.680800 5.739630 -1.960020 6.456720 -0.000001 -0.000000 2.083130 12.314200 0.840202 12.994200 -0.242716 4.980390 -91.127900 5.145480 -77.619200 5.348090 -0.000007 -0.000001 -71.918700 -0.608900 5.037620 24.328600 0.000019 0.000005 48.542900 2.131270 -88.116400 22.291600 -0.000001 0.000005 47.804600 5.091430 5.144370 12.994500 -0.242716 -4.980390 90.185700 -0.636871 -73.747400 -5.348130 -0.000001 -0.000004 -54.449700 -16.386300 14.900400 -24.328900 0.000322 -0.000009 -0.001053 16.310000 0.000072 -22.291500 -0.000108 -0.000004 19.616400 4.501280 16.564100 -2.192480 -6.469440 -0.000000 -177.798000 -6.578570 6.646740 39.081100 -0.000007 -0.000012 0.215115 -0.137361 57.439200 40.985400 -0.000006 -0.000013 -12.626600 8.752450 -33.142500 11.754300 -0.000000 0.000003 0.002257 0.058301 -14.212000 -2.192510 6.469440 -0.000001 -176.850000 -10.287900 138.149000 -39.081100 -0.002282 -0.040193 -0.078943 0.144079 29.719400 -40.985400 0.000008 0.000006 -11.988800 -1.757020 -80.083300 -11.754300 -0.000006 -0.000006 0.001246 0.143086 -10.770600
0.000000 0.000000 0.000000 0.000000 0.000000 -0.000000 0.189685 86.324400 -0.136973 84.789200 -4.597460 -12.662000 15.735700 0.000005 -0.000001 52.778700 84.562800 -49.515400 8.984550 -0.406207 -0.000000 1.104120 -6.764780 6.592690 16.377300 -0.000001 -0.000001 -10.879600 5.050150 -2.931570 6.456720 -0.000001 -0.000000 1.126560 9.709330 -0.895974 12.994200 -0.242716 4.980390 -91.437700 6.081960 -76.674800 5.348090 -0.000007 -0.000001 -71.216300 0.879637 6.721240 24.328600 0.000019 0.000005 49.911700 8.762760 -82.701900 22.291600 -0.000001 0.000005 27.753300 5.212590 2.335840 12.994500 -0.242716 -4.980390 89.833500 0.578809 -73.939000 -5.348130 -0.000001 -0.000004 -56.669300 -13.336700 10.437000 -24.328900 0.000322 -0.000009 -0.001130 14.108300 0.000060 -22.291500 -0.000108 -0.000004 14.566500 4.634770 14.277400 -2.192480 -6.469440 -0.000000 -175.680000 -8.778720 -2.278150 39.081100 -0.000007 -0.000012 0.552310 -0.122449 77.499100 40.985400 -0.000006 -0.000013 -12.335200 3.561160 -34.145700 11.754300 -0.000000 0.000003 0.002360 0.064825 -13.947500 -2.192510 6.469440 -0.000001 -172.448000 -8.788270 134.130000 -39.081100 -0.002282 -0.040193 0.380427 -0.400769 43.262100 -40.985400 0.000008 0.000006 2.564150 -6.633790 -67.726600 -11.754300 -0.000006 -0.000006 -0.005216 0.231205 -7.188190
0.000000 0.000000 0.000000 0.000000 0.000000 -0.000000 -0.283789 83.726600 10.059100 83.237200 -4.087370 -10.588800 15.735700 0.000005 -0.000001 70.880300 84.159000 -67.108700 8.984550 -0.406207 -0.000000 3.420230 -3.964620 7.655980 16.377300 -0.000001 -0.000001 -10.958900 4.549000 -3.708470 6.456720 -0.000001 -0.000000 -0.589301 6.924870 -1.660150 12.994200 -0.242716 4.980390 -91.969700 7.725540 -75.651900 5.348090 -0.000007 -0.000001 -69.240700 0.979096 6.048780 24.328600 0.000019 0.000005 50.208700 20.515700 -73.715700 22.291600 -0.000001 0.000005 8.926730 5.181660 3.256710 12.994500 -0.242716 -4.980390 89.322600 2.471460 -74.662500 -5.348130 -0.000001 -0.000004 -58.758700 -8.977170 4.881510 -24.328900 0.000322 -0.000009 0.048377 12.191900 -0.234710 -22.291500 -0.000108 -0.000004 9.043910 4.782500 11.615900 -2.192480 -6.469440 -0.000000 -172.036000 -9.644720 -11.647300 39.081100 -0.000007 -0.000012 0.892572 0.100482 96.421900 40.985400 -0.000006 -0.000013 -12.321700 -3.149590 -35.301600 11.754300 -0.000000 0.000003 0.002366 0.065327 -13.927200 -2.192510 6.469440 -0.000001 -169.908000 -6.756960 136.965000 -39.081100 -0.002282 -0.040193 0.028700 -0.017011 56.271200 -40.985400 0.000008 0.000006 -1.526720 -4.110490 -78.698800 -11.754300 -0.000006 -0.000006 -0.008124 0.256706 -6.147680
0.000000 0.000000 0.000000 0.000000 0.000000 -0.000000 -0.913202 82.795600 19.460100 81.176600 -3.534090 -10.396800 15.735700 0.000005 -0.000001 83.419400 83.665000 -78.970600 8.984550 -0.406207 -0.000000 4.898220 -1.559920 8.954700 16.377300 -0.000001 -0.000001 -12.051500 4.669870 -3.230580 6.456720 -0.000001 -0.000000 -1.278160 5.395300 -2.759040 12.994200 -0.242716 4.980390 -92.310200 8.250920 -74.298900 5.348090 -0.000007 -0.000001 -68.313700 -0.388955 4.951160 24.328600 0.000019 0.000005 40.701300 35.002500 -56.316700 22.291600 -0.000001 0.000005 6.818150 5.046660 6.302230 12.994500 -0.242716 -4.980390 89.331600 2.727640 -76.225800 -5.348130 -0.000001 -0.000004 -61.726900 -3.247810 -0.220405 -24.328900 0.000322 -0.000009 2.653980 13.092700 -11.556700 -22.291500 -0.000108 -0.000004 3.749050 4.912250 9.075770 -2.192480 -6.469440 -0.000000 -169.343000 -9.108630 -26.767200 39.081100 -0.000007 -0.000012 0.851495 0.315165 110.309000 40.985400 -0.000006 -0.000013 -9.731700 -2.029540 -34.180400 11.754300 -0.000000 0.000003 0.002268 0.058900 -14.187800 -2.192510 6.469440 -0.000001 -167.151000 -6.853340 143.395000 -39.081100 -0.002282 -0.040193 -0.005510 0.005236 59.006500 -40.985400 0.000008 0.000006 -2.283930 -4.194540 -86.089800 -11.754300 -0.000006 -0.000006 -0.004989 0.229027 -7.276980
0.000000 0.000000 0.000000 0.000000 0.000000 -0.000000 -0.932477 83.711300 29.356300 82.729700 -2.660770 -9.977790 15.735700 0.000005 -0.000001 88.683300 83.536300 -85.007400 8.984550 -0.406207 -0.000000 5.180770 -0.379008 7.360530 16.377300 -0.000001 -0.000001 -12.377600 3.723230 -1.898960 6.456720 -0.000001 -0.000000 -0.704899 4.971080 -1.771810 12.994200 -0.242716 4.980390 -92.139300 7.637790 -74.301600 5.348090 -0.000007 -0.000001 -66.206000 -4.665790 10.103300 24.328600 0.000019 0.000005 38.426500 44.941800 -48.318800 22.291600 -0.000001 0.000005 5.971910 5.057330 6.065150 12.994500 -0.242716 -4.980390 89.309400 2.803930 -76.158400 -5.348130 -0.000001 -0.000004 -62.213200 3.946590 -2.879650 -24.328900 0.000322 -0.000009 6.444470 11.282700 -30.040600 -22.291500 -0.000108 -0.000004 3.535450 5.200290 2.787040 -2.192480 -6.469440 -0.000000 -171.456000 -6.920600 -39.634400 39.081100 -0.000007 -0.000012 0.535535 0.250561 115.072000 40.985400 -0.000006 -0.000013 -7.539240 1.528240 -39.739100 11.754300 -0.000000 0.000003 0.002196 0.055117 -14.341100 -2.192510 6.469440 -0.000001 -168.602000 -5.256030 153.471000 -39.081100 -0.002282 -0.040193 -0.004820 0.005714 54.626600 -40.985400 0.000008 0.000006 -3.031360 -2.909710 -89.528300 -11.754300 -0.000006 -0.000006 -0.001494 0.189854 -8.871350
